name Walk3.mot
datacolumns 19
datarows 30
range 0.87000000 0.89900000
endheader

                time	   L_ground_force_vx	   L_ground_force_vy	   L_ground_force_vz	   L_ground_force_px	   L_ground_force_py	   L_ground_force_pz	   R_ground_force_vx	   R_ground_force_vy	   R_ground_force_vz	   R_ground_force_px	   R_ground_force_py	   R_ground_force_pz	   L_ground_torque_x	   L_ground_torque_y	   L_ground_torque_z	   R_ground_torque_x	   R_ground_torque_y	   R_ground_torque_z	
          0.87000000	          0.00000000	          0.00000000	          0.00000000	          0.00000000	          0.00000000	          0.00000000	          0.00000000	          0.00000000	          0.00000000	          0.00000000	          0.00000000	          0.00000000	          0.00000000	          0.00000000	          0.00000000	          0.00000000	          0.00000000	          0.00000000	
          0.87100000	          0.00000000	          0.00000000	          0.00000000	          0.00000000	          0.00000000	          0.00000000	          0.00000000	          0.00000000	          0.00000000	          0.00000000	          0.00000000	          0.00000000	          0.00000000	          0.00000000	          0.00000000	          0.00000000	          0.00000000	          0.00000000	
          0.87200000	          0.00000000	          0.00000000	          0.00000000	          0.00000000	          0.00000000	          0.00000000	          0.00000000	          0.00000000	          0.00000000	          0.00000000	          0.00000000	          0.00000000	          0.00000000	          0.00000000	          0.00000000	          0.00000000	          0.00000000	          0.00000000	
          0.87300000	          0.00000000	          0.00000000	          0.00000000	          0.00000000	          0.00000000	          0.00000000	          0.00000000	          0.00000000	          0.00000000	          0.00000000	          0.00000000	          0.00000000	          0.00000000	          0.00000000	          0.00000000	          0.00000000	          0.00000000	          0.00000000	
          0.87400000	          0.00000000	          0.00000000	          0.00000000	          0.00000000	          0.00000000	          0.00000000	          0.00000000	          0.00000000	          0.00000000	          0.00000000	          0.00000000	          0.00000000	          0.00000000	          0.00000000	          0.00000000	          0.00000000	          0.00000000	          0.00000000	
          0.87500000	          0.00000000	          0.00000000	          0.00000000	          0.00000000	          0.00000000	          0.00000000	          0.00000000	          0.00000000	          0.00000000	          0.00000000	          0.00000000	          0.00000000	          0.00000000	          0.00000000	          0.00000000	          0.00000000	          0.00000000	          0.00000000	
          0.87600000	          0.00000000	          0.00000000	          0.00000000	          0.00000000	          0.00000000	          0.00000000	          0.00000000	          0.00000000	          0.00000000	          0.00000000	          0.00000000	          0.00000000	          0.00000000	          0.00000000	          0.00000000	          0.00000000	          0.00000000	          0.00000000	
          0.87700000	          0.00000000	          0.00000000	          0.00000000	          0.00000000	          0.00000000	          0.00000000	          0.00000000	          0.00000000	          0.00000000	          0.00000000	          0.00000000	          0.00000000	          0.00000000	          0.00000000	          0.00000000	          0.00000000	          0.00000000	          0.00000000	
          0.87800000	         -7.22661641	         14.01979999	         -0.03947756	         -0.41467299	          0.00000000	         -0.02185765	          0.00000000	          0.00000000	          0.00000000	          0.00000000	          0.00000000	          0.00000000	          0.00000000	          0.22425559	          0.00000000	          0.00000000	          0.00000000	          0.00000000	
          0.87900000	        -11.40988047	         21.46689503	         -0.05581292	         -0.41760169	          0.00000000	         -0.02590402	          0.00000000	          0.00000000	          0.00000000	          0.00000000	          0.00000000	          0.00000000	          0.00000000	          0.28973667	          0.00000000	          0.00000000	          0.00000000	          0.00000000	
          0.88000000	        -16.24045881	         29.83366541	         -0.05127028	         -0.42034191	          0.00000000	         -0.02981265	          0.00000000	          0.00000000	          0.00000000	          0.00000000	          0.00000000	          0.00000000	          0.00000000	          0.34149204	          0.00000000	          0.00000000	          0.00000000	          0.00000000	
          0.88100000	        -21.77466627	         39.32021065	          0.01643177	         -0.42255449	          0.00000000	         -0.03346647	          0.00000000	          0.00000000	          0.00000000	          0.00000000	          0.00000000	          0.00000000	          0.00000000	          0.38643564	          0.00000000	          0.00000000	          0.00000000	          0.00000000	
          0.88200000	        -28.18142116	         50.30648740	          0.20226672	         -0.42402201	          0.00000000	         -0.03663978	          0.00000000	          0.00000000	          0.00000000	          0.00000000	          0.00000000	          0.00000000	          0.00000000	          0.42998724	          0.00000000	          0.00000000	          0.00000000	          0.00000000	
          0.88300000	        -35.59137707	         63.01131308	          0.54948749	         -0.42480022	          0.00000000	         -0.03913733	          0.00000000	          0.00000000	          0.00000000	          0.00000000	          0.00000000	          0.00000000	          0.00000000	          0.47483422	          0.00000000	          0.00000000	          0.00000000	          0.00000000	
          0.88400000	        -43.98413759	         77.30718572	          1.06649313	         -0.42502038	          0.00000000	         -0.04094381	          0.00000000	          0.00000000	          0.00000000	          0.00000000	          0.00000000	          0.00000000	          0.00000000	          0.52189361	          0.00000000	          0.00000000	          0.00000000	          0.00000000	
          0.88500000	        -53.13763202	         92.67824451	          1.71463632	         -0.42480116	          0.00000000	         -0.04227707	          0.00000000	          0.00000000	          0.00000000	          0.00000000	          0.00000000	          0.00000000	          0.00000000	          0.56692267	          0.00000000	          0.00000000	          0.00000000	          0.00000000	
          0.88600000	        -62.65360712	        108.33536424	          2.41194759	         -0.42430419	          0.00000000	         -0.04339157	          0.00000000	          0.00000000	          0.00000000	          0.00000000	          0.00000000	          0.00000000	          0.00000000	          0.60307349	          0.00000000	          0.00000000	          0.00000000	          0.00000000	
          0.88700000	        -72.01364196	        123.47770959	          3.05074224	         -0.42371884	          0.00000000	         -0.04440451	          0.00000000	          0.00000000	          0.00000000	          0.00000000	          0.00000000	          0.00000000	          0.00000000	          0.62691437	          0.00000000	          0.00000000	          0.00000000	          0.00000000	
          0.88800000	        -80.60948524	        137.57371746	          3.52272736	         -0.42317070	          0.00000000	         -0.04525368	          0.00000000	          0.00000000	          0.00000000	          0.00000000	          0.00000000	          0.00000000	          0.00000000	          0.64282083	          0.00000000	          0.00000000	          0.00000000	          0.00000000	
          0.88900000	        -87.75396071	        150.45726659	          3.73833609	         -0.42272612	          0.00000000	         -0.04575155	          0.00000000	          0.00000000	          0.00000000	          0.00000000	          0.00000000	          0.00000000	          0.00000000	          0.66526255	          0.00000000	          0.00000000	          0.00000000	          0.00000000	
          0.89000000	        -92.73160378	        162.23715559	          3.63166916	         -0.42247173	          0.00000000	         -0.04577041	          0.00000000	          0.00000000	          0.00000000	          0.00000000	          0.00000000	          0.00000000	          0.00000000	          0.70748955	          0.00000000	          0.00000000	          0.00000000	          0.00000000	
          0.89100000	        -94.93820804	        173.21577779	          3.16730130	         -0.42252438	          0.00000000	         -0.04542763	          0.00000000	          0.00000000	          0.00000000	          0.00000000	          0.00000000	          0.00000000	          0.00000000	          0.75832518	          0.00000000	          0.00000000	          0.00000000	          0.00000000	
          0.89200000	        -94.06312477	        183.85116420	          2.36266584	         -0.42296365	          0.00000000	         -0.04502593	          0.00000000	          0.00000000	          0.00000000	          0.00000000	          0.00000000	          0.00000000	          0.00000000	          0.78255191	          0.00000000	          0.00000000	          0.00000000	          0.00000000	
          0.89300000	        -90.20215137	        194.65837887	          1.30382877	         -0.42374704	          0.00000000	         -0.04478328	          0.00000000	          0.00000000	          0.00000000	          0.00000000	          0.00000000	          0.00000000	          0.00000000	          0.75633184	          0.00000000	          0.00000000	          0.00000000	          0.00000000	
          0.89400000	        -83.84338340	        206.06358611	          0.12910635	         -0.42469140	          0.00000000	         -0.04469035	          0.00000000	          0.00000000	          0.00000000	          0.00000000	          0.00000000	          0.00000000	          0.00000000	          0.68892290	          0.00000000	          0.00000000	          0.00000000	          0.00000000	
          0.89500000	        -75.73667720	        218.28184057	         -1.01123078	         -0.42557426	          0.00000000	         -0.04463438	          0.00000000	          0.00000000	          0.00000000	          0.00000000	          0.00000000	          0.00000000	          0.00000000	          0.60490593	          0.00000000	          0.00000000	          0.00000000	          0.00000000	
          0.89600000	        -66.70679718	        231.26663660	         -1.99515584	         -0.42625347	          0.00000000	         -0.04455941	          0.00000000	          0.00000000	          0.00000000	          0.00000000	          0.00000000	          0.00000000	          0.00000000	          0.52277910	          0.00000000	          0.00000000	          0.00000000	          0.00000000	
          0.89700000	        -57.49349936	        244.76832719	         -2.75023203	         -0.42669019	          0.00000000	         -0.04447592	          0.00000000	          0.00000000	          0.00000000	          0.00000000	          0.00000000	          0.00000000	          0.00000000	          0.45254827	          0.00000000	          0.00000000	          0.00000000	          0.00000000	
          0.89800000	        -48.65765511	        258.45130320	         -3.25466499	         -0.42690584	          0.00000000	         -0.04438844	          0.00000000	          0.00000000	          0.00000000	          0.00000000	          0.00000000	          0.00000000	          0.00000000	          0.40032937	          0.00000000	          0.00000000	          0.00000000	          0.00000000	
          0.89900000	        -40.55680530	        271.97900750	         -3.53029560	         -0.42695309	          0.00000000	         -0.04427891	          0.00000000	          0.00000000	          0.00000000	          0.00000000	          0.00000000	          0.00000000	          0.00000000	          0.37025111	          0.00000000	          0.00000000	          0.00000000	          0.00000000	
